<svg width="115" height="33" viewBox="0 0 115 33" fill="none" xmlns="http://www.w3.org/2000/svg">
<g clip-path="url(#clip0_2_2133)">
<path d="M45.974 17.937C45.8601 18.0344 45.7055 18.1155 45.5103 18.1885C45.3151 18.2615 45.0955 18.294 44.8433 18.294C44.5505 18.294 44.2983 18.2453 44.0787 18.1561C43.8591 18.0668 43.7127 17.9208 43.6313 17.7261C42.9887 16.2496 42.4356 14.9435 41.972 13.7996C41.5083 12.6557 41.1342 11.7065 40.8495 10.9439H40.7437C40.7031 11.9337 40.6624 12.8423 40.6299 13.6698C40.5973 14.4973 40.5566 15.3085 40.516 16.1036C40.4753 16.8986 40.4265 17.7018 40.3777 18.5211C40.3289 19.3405 40.2801 20.2248 40.2231 21.174C40.1093 21.2145 39.971 21.2551 39.792 21.2875C39.6212 21.32 39.4341 21.3362 39.2389 21.3362C38.4824 21.3362 38.1083 21.0279 38.1083 20.4195C38.1083 20.241 38.1164 19.9165 38.1408 19.4622C38.1652 18.9998 38.1896 18.4562 38.2222 17.8234C38.2547 17.1907 38.2954 16.493 38.3442 15.7304C38.393 14.9678 38.4418 14.189 38.4987 13.4021C38.5557 12.6151 38.6126 11.8444 38.6695 11.09C38.7265 10.3355 38.7834 9.6297 38.8403 8.99691C38.9542 8.88334 39.1332 8.76976 39.3935 8.63996C39.6538 8.51827 39.971 8.45337 40.3452 8.45337C40.7925 8.45337 41.1504 8.5345 41.4107 8.69675C41.6792 8.859 41.8825 9.09427 42.0371 9.41877C42.2567 9.90553 42.4926 10.4328 42.7284 10.9926C42.9643 11.5524 43.2002 12.1284 43.4361 12.7044C43.672 13.2804 43.8998 13.8564 44.1275 14.4243C44.3471 14.9921 44.5668 15.5276 44.7782 16.0306H44.884C45.1524 15.3329 45.4208 14.6433 45.6893 13.9618C45.9577 13.2804 46.2261 12.6233 46.4864 11.9986C46.7467 11.3739 46.9907 10.7817 47.2185 10.2219C47.4462 9.66215 47.6577 9.16728 47.8529 8.72109C48.0075 8.65618 48.1946 8.59128 48.4142 8.5345C48.6338 8.47771 48.8697 8.45337 49.1056 8.45337C49.5692 8.45337 49.9109 8.52638 50.1386 8.6643C50.3664 8.80221 50.5209 9.00503 50.586 9.27274C50.6429 9.52423 50.708 9.93798 50.7731 10.514C50.8463 11.09 50.9114 11.7552 50.9846 12.5097C51.0578 13.2642 51.1228 14.0592 51.1961 14.9029C51.2693 15.7466 51.3262 16.5579 51.3831 17.3448C51.4401 18.1317 51.4889 18.8537 51.5296 19.519C51.5702 20.1842 51.6028 20.6953 51.6109 21.0766C51.4563 21.1739 51.2937 21.247 51.1228 21.2956C50.952 21.3443 50.7405 21.3687 50.5047 21.3687C50.2118 21.3687 49.9597 21.3038 49.7401 21.1821C49.5204 21.0604 49.3984 20.817 49.374 20.4763C49.3171 19.5271 49.2683 18.5941 49.2195 17.6774C49.1707 16.7607 49.1219 15.8926 49.0812 15.0652C49.0405 14.2377 48.9998 13.4832 48.9673 12.7936C48.9348 12.0959 48.9022 11.5037 48.8697 11.017H48.7884C48.5199 11.7228 48.162 12.6314 47.7065 13.7266C47.251 14.8218 46.6735 16.2415 45.9577 17.9614L45.974 17.937Z" fill="#3975E9"/>
<path d="M56.0765 17.4097C56.2717 18.2047 56.654 18.7888 57.2153 19.1701C57.7765 19.5514 58.5005 19.7461 59.379 19.7461C59.9646 19.7461 60.5015 19.6569 60.9895 19.4703C61.4776 19.2918 61.868 19.0971 62.1608 18.8862C62.5513 19.1052 62.7465 19.4216 62.7465 19.8272C62.7465 20.0625 62.657 20.2816 62.4781 20.4844C62.2991 20.6872 62.047 20.8575 61.7379 21.0036C61.4206 21.1496 61.0546 21.2632 60.6316 21.3443C60.2086 21.4254 59.7531 21.466 59.2651 21.466C58.4598 21.466 57.7196 21.3524 57.0607 21.1334C56.3938 20.9143 55.8325 20.5817 55.3526 20.1355C54.8808 19.6893 54.5148 19.1377 54.2545 18.4887C53.9942 17.8315 53.864 17.0771 53.864 16.2171C53.864 15.3572 53.9861 14.6514 54.2382 14.0186C54.4904 13.3858 54.832 12.8585 55.2631 12.4367C55.6942 12.0148 56.2067 11.6903 56.7923 11.4631C57.378 11.236 58.0043 11.1305 58.6794 11.1305C59.3546 11.1305 59.9565 11.236 60.5096 11.455C61.0627 11.6741 61.5345 11.9742 61.9331 12.3555C62.3316 12.7368 62.6407 13.1911 62.8522 13.7184C63.0718 14.2458 63.1776 14.8218 63.1776 15.4464C63.1776 15.7953 63.0963 16.0468 62.9254 16.209C62.7546 16.3713 62.5106 16.4767 62.1934 16.5335L56.0847 17.4097H56.0765ZM58.6713 12.8179C57.9067 12.8179 57.2641 13.0776 56.7598 13.5886C56.2473 14.0997 55.9789 14.838 55.9545 15.8034L61.1034 15.0733C61.0465 14.4486 60.8187 13.9132 60.412 13.4751C60.0053 13.037 59.4278 12.8179 58.6794 12.8179H58.6713Z" fill="#3975E9"/>
<path d="M71.4418 13.3615C71.0595 13.0451 70.539 12.8828 69.8801 12.8828C69.3921 12.8828 68.9528 12.9477 68.5705 13.0694C68.1882 13.1911 67.8547 13.3372 67.5781 13.4832V21.1415C67.4805 21.1821 67.3423 21.2226 67.1714 21.2551C67.0006 21.2875 66.8054 21.3119 66.5939 21.3119C66.1872 21.3119 65.8863 21.2307 65.691 21.0847C65.4958 20.9306 65.3982 20.671 65.3982 20.314V13.4264C65.3982 13.11 65.4633 12.8504 65.5853 12.6557C65.7073 12.461 65.9188 12.2663 66.2116 12.0716C66.6021 11.8363 67.1145 11.6173 67.7408 11.4226C68.3672 11.2279 69.083 11.1305 69.872 11.1305C71.2222 11.1305 72.2878 11.4307 73.0524 12.0391C73.817 12.6476 74.1993 13.5562 74.1993 14.7812V21.1415C74.1017 21.1821 73.9634 21.2226 73.7845 21.2551C73.6055 21.2875 73.4103 21.3119 73.1988 21.3119C72.7921 21.3119 72.4911 21.2307 72.2959 21.0847C72.1007 20.9306 72.0031 20.671 72.0031 20.314V14.8704C72.0031 14.189 71.8079 13.686 71.4256 13.3696L71.4418 13.3615Z" fill="#3975E9"/>
<path d="M77.1032 11.4469C77.2008 11.4145 77.3391 11.3901 77.518 11.3496C77.697 11.309 77.8922 11.3009 78.1037 11.3009C78.5104 11.3009 78.8032 11.3739 78.9903 11.5281C79.1774 11.6822 79.275 11.9418 79.275 12.3231V17.4746C79.275 18.2777 79.4865 18.8537 79.9094 19.1945C80.3324 19.5352 80.9262 19.7056 81.6746 19.7056C82.1626 19.7056 82.5774 19.6569 82.9109 19.5595C83.2444 19.4622 83.5129 19.3567 83.7081 19.2431V11.4388C83.822 11.4064 83.9602 11.382 84.1392 11.3415C84.31 11.309 84.5052 11.2928 84.7167 11.2928C85.1234 11.2928 85.4244 11.3658 85.6196 11.5199C85.8148 11.6741 85.9124 11.9337 85.9124 12.315V19.3486C85.9124 19.6569 85.8636 19.9084 85.766 20.1031C85.6684 20.2978 85.4732 20.4844 85.1803 20.6629C84.8143 20.8738 84.3425 21.0604 83.7487 21.2226C83.155 21.393 82.4636 21.4741 81.6664 21.4741C80.2267 21.4741 79.1123 21.1577 78.307 20.5249C77.5017 19.8922 77.1032 18.8862 77.1032 17.507V11.4388V11.4469Z" fill="#3975E9"/>
<path d="M0.992361 7.4636C1.53735 7.4636 1.98472 7.01741 1.98472 6.47386V2.53924C1.98472 2.22285 2.23688 1.97136 2.55411 1.97136H6.49915C7.04414 1.97136 7.49151 1.52517 7.49151 0.981621C7.49151 0.438076 7.04414 -0.00811768 6.49915 -0.00811768H2.54598C1.14691 -5.06081e-06 0 1.14387 0 2.53924V6.47386C0 7.01741 0.447376 7.4636 0.992361 7.4636Z" fill="#3975E9"/>
<path d="M6.49102 30.7225H2.54598C2.22875 30.7225 1.97659 30.471 1.97659 30.1546V26.22C1.97659 25.6764 1.52921 25.2302 0.984228 25.2302C0.439243 25.2302 -0.00813293 25.6764 -0.00813293 26.22V30.1546C-0.00813293 31.5581 1.13878 32.6938 2.53784 32.6938H6.48288C7.02787 32.6938 7.47524 32.2476 7.47524 31.7041C7.47524 31.1605 7.02787 30.7144 6.48288 30.7144L6.49102 30.7225Z" fill="#3975E9"/>
<path d="M30.2345 0H26.2894C25.7444 0 25.2971 0.446194 25.2971 0.989739C25.2971 1.53328 25.7444 1.97948 26.2894 1.97948H30.2345C30.5517 1.97948 30.8039 2.23097 30.8039 2.54736V6.48198C30.8039 7.02552 31.2512 7.47172 31.7962 7.47172C32.3412 7.47172 32.7886 7.02552 32.7886 6.48198V2.53925C32.7886 1.13577 31.6417 0 30.2426 0H30.2345Z" fill="#3975E9"/>
<path d="M31.7962 25.2383C31.2512 25.2383 30.8039 25.6845 30.8039 26.2281V30.1627C30.8039 30.4791 30.5517 30.7306 30.2345 30.7306H26.2894C25.7444 30.7306 25.2971 31.1768 25.2971 31.7203C25.2971 32.2639 25.7444 32.7101 26.2894 32.7101H30.2345C31.6417 32.7101 32.7804 31.5662 32.7804 30.1708V26.2362C32.7804 25.6926 32.3331 25.2465 31.7881 25.2465L31.7962 25.2383Z" fill="#3975E9"/>
<path d="M18.5946 15.1381H26.8425C27.3875 15.1381 27.8349 14.6919 27.8349 14.1484V7.56906C27.8349 6.11691 26.6473 4.93246 25.1913 4.93246H18.5946C18.0496 4.93246 17.6022 5.37866 17.6022 5.9222V14.1484C17.6022 14.6919 18.0496 15.1381 18.5946 15.1381ZM19.5869 6.91194H25.1995C25.5655 6.91194 25.8583 7.204 25.8583 7.56906V13.1668H19.5869V6.91194Z" fill="#3975E9"/>
<path d="M14.194 4.94058H7.59726C6.14125 4.94058 4.95367 6.12502 4.95367 7.57718V14.1565C4.95367 14.7001 5.40105 15.1462 5.94604 15.1462H14.194C14.739 15.1462 15.1864 14.7001 15.1864 14.1565V5.9222C15.1864 5.37866 14.739 4.93246 14.194 4.93246V4.94058ZM13.2017 13.1668H6.93026V7.56906C6.93026 7.204 7.22309 6.91194 7.58912 6.91194H13.2017V13.1668Z" fill="#3975E9"/>
<path d="M10.8509 8.94009H9.27289C9.10218 8.94009 8.96379 9.07811 8.96379 9.24837V10.8222C8.96379 10.9925 9.10218 11.1305 9.27289 11.1305H10.8509C11.0216 11.1305 11.16 10.9925 11.16 10.8222V9.24837C11.16 9.07811 11.0216 8.94009 10.8509 8.94009Z" fill="#3975E9"/>
<path d="M23.5076 8.94009H21.9295C21.7588 8.94009 21.6205 9.07811 21.6205 9.24837V10.8222C21.6205 10.9925 21.7588 11.1305 21.9295 11.1305H23.5076C23.6783 11.1305 23.8167 10.9925 23.8167 10.8222V9.24837C23.8167 9.07811 23.6783 8.94009 23.5076 8.94009Z" fill="#3975E9"/>
<path d="M10.8509 21.5633H9.27289C9.10218 21.5633 8.96379 21.7013 8.96379 21.8716V23.4455C8.96379 23.6157 9.10218 23.7537 9.27289 23.7537H10.8509C11.0216 23.7537 11.16 23.6157 11.16 23.4455V21.8716C11.16 21.7013 11.0216 21.5633 10.8509 21.5633Z" fill="#3975E9"/>
<path d="M21.7018 18.5454C21.7018 18.0019 22.1492 17.5557 22.6942 17.5557H26.8426C27.3875 17.5557 27.8349 18.0019 27.8349 18.5454V26.7716C27.8349 27.3152 27.3875 27.7614 26.8426 27.7614C26.2976 27.7614 25.8502 27.3152 25.8502 26.7716V19.5271H22.6942C22.1492 19.5271 21.7018 19.0809 21.7018 18.5373V18.5454Z" fill="#DF00A1"/>
<path d="M17.6022 25.1248V18.5454C17.6022 18.0019 18.0496 17.5557 18.5946 17.5557C19.1396 17.5557 19.5869 18.0019 19.5869 18.5454V25.1248C19.5869 25.4898 19.8798 25.7819 20.2458 25.7819H22.7186C23.2635 25.7819 23.7109 26.2281 23.7109 26.7716C23.7109 27.3152 23.2635 27.7614 22.7186 27.7614H20.2458C18.7898 27.7614 17.6022 26.5769 17.6022 25.1248Z" fill="#DF00A1"/>
<path d="M23.5076 21.5633H21.9295C21.7588 21.5633 21.6205 21.7013 21.6205 21.8716V23.4455C21.6205 23.6157 21.7588 23.7537 21.9295 23.7537H23.5076C23.6783 23.7537 23.8167 23.6157 23.8167 23.4455V21.8716C23.8167 21.7013 23.6783 21.5633 23.5076 21.5633Z" fill="#DF00A1"/>
<path d="M14.194 17.5557H5.9379C5.39292 17.5557 4.94554 18.0019 4.94554 18.5454V25.1248C4.94554 26.5769 6.13312 27.7614 7.58913 27.7614H14.1859C14.7309 27.7614 15.1782 27.3152 15.1782 26.7716V18.5454C15.1782 18.0019 14.7309 17.5557 14.1859 17.5557H14.194ZM13.2017 25.7819H7.58913C7.22309 25.7819 6.93026 25.4898 6.93026 25.1248V19.5271H13.2017V25.7819Z" fill="#3975E9"/>
</g>
<defs>
<clipPath id="clip0_2_2133">
<rect width="115" height="32.6938" fill="white"/>
</clipPath>
</defs>
</svg>
