<svg width="255" height="145" viewBox="0 0 255 145" fill="none" xmlns="http://www.w3.org/2000/svg">
<g clip-path="url(#clip0_2265_61066)">
<path d="M101.82 39.6174C101.568 39.8324 101.227 40.0116 100.796 40.1729C100.365 40.3341 99.8795 40.4058 99.3226 40.4058C98.6758 40.4058 98.1188 40.2983 97.6338 40.1012C97.1487 39.9041 96.8253 39.5816 96.6457 39.1515C95.2264 35.8904 94.0047 33.0055 92.9806 30.4791C91.9566 27.9526 91.1302 25.8561 90.5014 24.1718H90.2678C90.178 26.3578 90.0882 28.3647 90.0163 30.1924C89.9444 32.02 89.8546 33.8119 89.7648 35.5679C89.6749 37.3238 89.5671 39.0978 89.4593 40.9075C89.3516 42.7173 89.2438 44.6703 89.118 46.7668C88.8665 46.8564 88.5611 46.946 88.1658 47.0176C87.7885 47.0893 87.3753 47.1252 86.9441 47.1252C85.2733 47.1252 84.4469 46.4443 84.4469 45.1004C84.4469 44.7062 84.4649 43.9895 84.5188 42.986C84.5727 41.9647 84.6266 40.7642 84.6984 39.3665C84.7703 37.9689 84.8601 36.4279 84.9679 34.7436C85.0757 33.0593 85.1835 31.3391 85.3093 29.6011C85.435 27.863 85.5608 26.1607 85.6865 24.4943C85.8123 22.8279 85.9381 21.2691 86.0638 19.8714C86.3153 19.6206 86.7106 19.3697 87.2855 19.083C87.8604 18.8142 88.5611 18.6709 89.3875 18.6709C90.3756 18.6709 91.1661 18.8501 91.741 19.2084C92.3339 19.5668 92.783 20.0864 93.1244 20.8032C93.6094 21.8783 94.1304 23.043 94.6515 24.2793C95.1725 25.5157 95.6935 26.7879 96.2145 28.0601C96.7355 29.3323 97.2385 30.6045 97.7416 31.8588C98.2266 33.113 98.7117 34.2957 99.1788 35.4066H99.4124C100.005 33.8656 100.598 32.3426 101.191 30.8374C101.784 29.3323 102.377 27.8809 102.952 26.5012C103.527 25.1215 104.066 23.8135 104.569 22.5771C105.072 21.3407 105.539 20.2477 105.97 19.2622C106.311 19.1189 106.724 18.9755 107.21 18.8501C107.695 18.7247 108.216 18.6709 108.737 18.6709C109.761 18.6709 110.515 18.8322 111.018 19.1368C111.521 19.4414 111.863 19.8893 112.006 20.4806C112.132 21.0361 112.276 21.9499 112.42 23.2221C112.581 24.4943 112.725 25.9636 112.887 27.63C113.048 29.2964 113.192 31.0524 113.354 32.9159C113.516 34.7794 113.641 36.5713 113.767 38.3094C113.893 40.0474 114.001 41.6422 114.09 43.1115C114.18 44.5808 114.252 45.7096 114.27 46.5518C113.929 46.7668 113.569 46.9281 113.192 47.0356C112.815 47.1431 112.348 47.1968 111.827 47.1968C111.18 47.1968 110.623 47.0535 110.138 46.7847C109.653 46.5159 109.383 45.9784 109.329 45.2258C109.204 43.1294 109.096 41.0688 108.988 39.044C108.88 37.0192 108.773 35.102 108.683 33.2743C108.593 31.4466 108.503 29.7802 108.431 28.2572C108.359 26.7162 108.287 25.4082 108.216 24.3331H108.036C107.443 25.892 106.653 27.8988 105.647 30.3178C104.64 32.7368 103.365 35.8725 101.784 39.6711L101.82 39.6174Z" fill="#3975E9"/>
<path d="M124.133 38.4527C124.564 40.2087 125.409 41.4989 126.648 42.341C127.888 43.1832 129.487 43.6132 131.427 43.6132C132.721 43.6132 133.907 43.4161 134.985 43.004C136.063 42.6098 136.925 42.1798 137.572 41.7139C138.434 42.1977 138.865 42.8965 138.865 43.7924C138.865 44.312 138.668 44.7958 138.272 45.2438C137.877 45.6917 137.32 46.068 136.637 46.3906C135.937 46.7131 135.128 46.9639 134.194 47.1431C133.26 47.3223 132.254 47.4119 131.176 47.4119C129.397 47.4119 127.762 47.161 126.307 46.6772C124.834 46.1935 123.594 45.4588 122.534 44.4733C121.492 43.4878 120.684 42.2693 120.109 40.8359C119.534 39.3845 119.247 37.7181 119.247 35.8188C119.247 33.9194 119.516 32.3605 120.073 30.9629C120.63 29.5653 121.385 28.4006 122.337 27.4688C123.289 26.5371 124.421 25.8203 125.714 25.3186C127.008 24.8169 128.391 24.584 129.882 24.584C131.373 24.584 132.703 24.8169 133.925 25.3007C135.146 25.7845 136.188 26.4475 137.069 27.2896C137.949 28.1318 138.632 29.1352 139.099 30.2999C139.584 31.4646 139.817 32.7368 139.817 34.1165C139.817 34.887 139.638 35.4425 139.26 35.8008C138.883 36.1592 138.344 36.3921 137.644 36.5176L124.151 38.4527H124.133ZM129.864 28.311C128.176 28.311 126.756 28.8844 125.642 30.0132C124.511 31.1421 123.918 32.7726 123.864 34.9049L135.236 33.2923C135.11 31.9126 134.607 30.73 133.709 29.7624C132.811 28.7948 131.535 28.311 129.882 28.311H129.864Z" fill="#3975E9"/>
<path d="M158.071 29.5115C157.226 28.8127 156.076 28.4543 154.621 28.4543C153.543 28.4543 152.573 28.5977 151.729 28.8665C150.884 29.1352 150.148 29.4578 149.537 29.7803V46.6952C149.321 46.7848 149.016 46.8743 148.639 46.946C148.261 47.0177 147.83 47.0714 147.363 47.0714C146.465 47.0714 145.8 46.8923 145.369 46.5697C144.938 46.2293 144.722 45.6559 144.722 44.8675V29.6549C144.722 28.956 144.866 28.3827 145.135 27.9526C145.405 27.5226 145.872 27.0925 146.519 26.6625C147.381 26.1429 148.513 25.6591 149.896 25.229C151.28 24.799 152.861 24.584 154.603 24.584C157.586 24.584 159.939 25.247 161.628 26.5908C163.317 27.9347 164.161 29.9416 164.161 32.6472V46.6952C163.945 46.7848 163.64 46.8743 163.245 46.946C162.849 47.0177 162.418 47.0714 161.951 47.0714C161.053 47.0714 160.388 46.8923 159.957 46.5697C159.526 46.2293 159.31 45.6559 159.31 44.8675V32.8443C159.31 31.3392 158.879 30.2282 158.035 29.5294L158.071 29.5115Z" fill="#3975E9"/>
<path d="M170.575 25.2828C170.79 25.2112 171.096 25.1574 171.491 25.0678C171.886 24.9782 172.318 24.9603 172.785 24.9603C173.683 24.9603 174.33 25.1216 174.743 25.462C175.156 25.8025 175.372 26.3758 175.372 27.218V38.5961C175.372 40.37 175.839 41.6422 176.773 42.3948C177.707 43.1474 179.019 43.5237 180.672 43.5237C181.75 43.5237 182.666 43.4161 183.402 43.2011C184.139 42.9861 184.732 42.7532 185.163 42.5023V25.2649C185.415 25.1932 185.72 25.1395 186.115 25.0499C186.493 24.9782 186.924 24.9424 187.391 24.9424C188.289 24.9424 188.954 25.1036 189.385 25.4441C189.816 25.7845 190.032 26.3579 190.032 27.2001V42.7353C190.032 43.4161 189.924 43.9716 189.708 44.4017C189.493 44.8317 189.062 45.2438 188.415 45.638C187.606 46.1039 186.564 46.516 185.253 46.8744C183.941 47.2507 182.414 47.4298 180.654 47.4298C177.474 47.4298 175.012 46.731 173.234 45.3334C171.455 43.9358 170.575 41.7139 170.575 38.6678V25.2649V25.2828Z" fill="#3975E9"/>
<path d="M226.233 32.7904C226.233 36.3203 225.514 39.2231 224.059 41.4987C222.604 43.7743 220.681 45.4049 218.292 46.3904C219.28 46.91 220.178 47.3759 220.987 47.7701C221.795 48.1643 222.586 48.5227 223.322 48.8094C224.059 49.0961 224.777 49.3828 225.442 49.6336C226.107 49.8845 226.808 50.1532 227.526 50.3862C227.562 50.6012 227.58 50.7804 227.58 50.9237V51.3179C227.58 52.2139 227.329 52.8947 226.844 53.3606C226.358 53.8444 225.658 54.0774 224.76 54.0774C223.646 54.0774 222.316 53.6652 220.735 52.841C219.172 52.0168 217.429 50.8879 215.561 49.4724L212.794 47.4476H212.525C210.549 47.4476 208.734 47.1251 207.045 46.4979C205.356 45.8708 203.919 44.939 202.698 43.7027C201.476 42.4663 200.524 40.9432 199.823 39.1156C199.122 37.2879 198.781 35.1736 198.781 32.7725C198.781 30.3714 199.14 28.2571 199.841 26.4294C200.542 24.6018 201.512 23.0787 202.751 21.8423C203.991 20.606 205.446 19.6921 207.117 19.0471C208.788 18.4199 210.585 18.0974 212.507 18.0974C214.429 18.0974 216.244 18.4199 217.915 19.0471C219.585 19.6742 221.023 20.606 222.262 21.8423C223.502 23.0787 224.472 24.6018 225.173 26.4294C225.873 28.2571 226.233 30.3714 226.233 32.7725V32.7904ZM221.202 32.7904C221.202 29.3501 220.412 26.734 218.849 24.9243C217.286 23.1145 215.166 22.2365 212.525 22.2365C209.884 22.2365 207.854 23.1325 206.273 24.9243C204.692 26.7161 203.901 29.3501 203.901 32.7904C203.901 36.2307 204.692 38.8468 206.255 40.6565C207.818 42.4484 209.92 43.3443 212.543 43.3443C215.166 43.3443 217.304 42.4484 218.867 40.6565C220.43 38.8647 221.22 36.2307 221.22 32.7904H221.202Z" fill="#DF00A1"/>
<path d="M237.371 46.7129C237.12 46.8025 236.797 46.8921 236.401 46.9638C236.006 47.0354 235.557 47.0892 235.054 47.0892C234.102 47.0892 233.419 46.91 233.006 46.5516C232.593 46.1933 232.377 45.602 232.377 44.7777V21.0001C232.377 20.4805 232.521 20.0684 232.808 19.7817C233.096 19.495 233.509 19.2621 234.03 19.1187C234.982 18.7783 236.132 18.5453 237.443 18.4199C238.755 18.2945 240.084 18.2407 241.414 18.2407C245.42 18.2407 248.402 19.047 250.361 20.6597C252.319 22.2723 253.289 24.548 253.289 27.4507C253.289 29.4755 252.75 31.2136 251.69 32.6291C250.63 34.0626 249.103 35.1198 247.145 35.8365C247.881 36.7503 248.6 37.6642 249.319 38.578C250.019 39.4918 250.702 40.3519 251.331 41.1582C251.96 41.9825 252.535 42.7171 253.038 43.3801C253.541 44.0431 253.954 44.5806 254.259 45.0107C254.098 45.7095 253.774 46.247 253.235 46.6233C252.714 46.9996 252.139 47.1788 251.528 47.1788C250.792 47.1788 250.199 46.9996 249.768 46.6412C249.337 46.2829 248.905 45.7991 248.474 45.1898L242.51 36.6249H237.335V46.7129H237.371ZM241.809 32.665C243.803 32.665 245.402 32.2349 246.57 31.3748C247.738 30.5148 248.331 29.2067 248.331 27.4507C248.331 25.6947 247.738 24.4405 246.552 23.5804C245.366 22.7203 243.624 22.2903 241.306 22.2903C240.605 22.2903 239.905 22.3261 239.204 22.3798C238.503 22.4336 237.892 22.5232 237.335 22.6128V32.665H241.809Z" fill="#DF00A1"/>
<path d="M2.46917 16.4849C3.67287 16.4849 4.66099 15.4994 4.66099 14.2989V5.60852C4.66099 4.90971 5.21793 4.35424 5.91859 4.35424H14.632C15.8357 4.35424 16.8238 3.36874 16.8238 2.16821C16.8238 0.967684 15.8357 -0.0178223 14.632 -0.0178223H5.90063C2.81052 9.60324e-05 0.277344 2.52658 0.277344 5.60852V14.2989C0.277344 15.4994 1.26546 16.4849 2.46917 16.4849Z" fill="#3975E9"/>
<path d="M14.614 67.8568H5.90065C5.19999 67.8568 4.64305 67.3013 4.64305 66.6025V57.9121C4.64305 56.7116 3.65493 55.7261 2.45122 55.7261C1.24752 55.7261 0.259399 56.7116 0.259399 57.9121V66.6025C0.259399 69.7023 2.79257 72.2109 5.88268 72.2109H14.5961C15.7998 72.2109 16.7879 71.2254 16.7879 70.0249C16.7879 68.8244 15.7998 67.8388 14.5961 67.8388L14.614 67.8568Z" fill="#3975E9"/>
<path d="M67.0561 0H58.3427C57.139 0 56.1509 0.985506 56.1509 2.18603C56.1509 3.38656 57.139 4.37207 58.3427 4.37207H67.0561C67.7568 4.37207 68.3137 4.92753 68.3137 5.62635V14.3167C68.3137 15.5172 69.3018 16.5028 70.5055 16.5028C71.7092 16.5028 72.6974 15.5172 72.6974 14.3167V5.60843C72.6974 2.50856 70.1642 0 67.0741 0H67.0561Z" fill="#3975E9"/>
<path d="M70.5055 55.7439C69.3018 55.7439 68.3137 56.7294 68.3137 57.9299V66.6203C68.3137 67.3191 67.7568 67.8746 67.0561 67.8746H58.3427C57.139 67.8746 56.1509 68.8601 56.1509 70.0606C56.1509 71.2611 57.139 72.2466 58.3427 72.2466H67.0561C70.1642 72.2466 72.6794 69.7202 72.6794 66.6382V57.9478C72.6794 56.7473 71.6913 55.7618 70.4876 55.7618L70.5055 55.7439Z" fill="#3975E9"/>
<path d="M41.3471 33.4357H59.5644C60.7681 33.4357 61.7562 32.4502 61.7562 31.2497V16.718C61.7562 13.5106 59.1332 10.8945 55.9173 10.8945H41.3471C40.1434 10.8945 39.1553 11.88 39.1553 13.0806V31.2497C39.1553 32.4502 40.1434 33.4357 41.3471 33.4357ZM43.5389 15.2666H55.9353C56.7438 15.2666 57.3905 15.9117 57.3905 16.718V29.0816H43.5389V15.2666Z" fill="#3975E9"/>
<path d="M31.6276 10.9124H17.0574C13.8415 10.9124 11.2185 13.5285 11.2185 16.7359V31.2676C11.2185 32.4682 12.2066 33.4537 13.4103 33.4537H31.6276C32.8313 33.4537 33.8194 32.4682 33.8194 31.2676V13.0806C33.8194 11.88 32.8313 10.8945 31.6276 10.8945V10.9124ZM29.4358 29.0816H15.5842V16.718C15.5842 15.9117 16.231 15.2666 17.0394 15.2666H29.4358V29.0816Z" fill="#3975E9"/>
<path d="M24.2437 19.7461H20.7584C20.3813 19.7461 20.0757 20.0509 20.0757 20.427V23.9031C20.0757 24.2792 20.3813 24.584 20.7584 24.584H24.2437C24.6208 24.584 24.9264 24.2792 24.9264 23.9031V20.427C24.9264 20.0509 24.6208 19.7461 24.2437 19.7461Z" fill="#3975E9"/>
<path d="M52.1985 19.7461H48.7131C48.336 19.7461 48.0304 20.0509 48.0304 20.427V23.9031C48.0304 24.2792 48.336 24.584 48.7131 24.584H52.1985C52.5755 24.584 52.8812 24.2792 52.8812 23.9031V20.427C52.8812 20.0509 52.5755 19.7461 52.1985 19.7461Z" fill="#3975E9"/>
<path d="M24.2437 47.627H20.7584C20.3813 47.627 20.0757 47.9318 20.0757 48.3078V51.784C20.0757 52.16 20.3813 52.4649 20.7584 52.4649H24.2437C24.6208 52.4649 24.9264 52.16 24.9264 51.784V48.3078C24.9264 47.9318 24.6208 47.627 24.2437 47.627Z" fill="#3975E9"/>
<path d="M48.2101 40.9614C48.2101 39.7609 49.1982 38.7754 50.4019 38.7754H59.5644C60.7682 38.7754 61.7563 39.7609 61.7563 40.9614V59.1306C61.7563 60.3311 60.7682 61.3166 59.5644 61.3166C58.3607 61.3166 57.3726 60.3311 57.3726 59.1306V43.1295H50.4019C49.1982 43.1295 48.2101 42.144 48.2101 40.9435V40.9614Z" fill="#DF00A1"/>
<path d="M39.1553 55.4932V40.9614C39.1553 39.7609 40.1434 38.7754 41.3471 38.7754C42.5508 38.7754 43.5389 39.7609 43.5389 40.9614V55.4932C43.5389 56.2995 44.1857 56.9445 44.9941 56.9445H50.4557C51.6594 56.9445 52.6476 57.9301 52.6476 59.1306C52.6476 60.3311 51.6594 61.3166 50.4557 61.3166H44.9941C41.7783 61.3166 39.1553 58.7005 39.1553 55.4932Z" fill="#DF00A1"/>
<path d="M52.1985 47.627H48.7131C48.336 47.627 48.0304 47.9318 48.0304 48.3078V51.784C48.0304 52.16 48.336 52.4649 48.7131 52.4649H52.1985C52.5755 52.4649 52.8812 52.16 52.8812 51.784V48.3078C52.8812 47.9318 52.5755 47.627 52.1985 47.627Z" fill="#DF00A1"/>
<path d="M31.6276 38.7754H13.3924C12.1887 38.7754 11.2006 39.7609 11.2006 40.9614V55.4932C11.2006 58.7005 13.8236 61.3166 17.0394 61.3166H31.6097C32.8134 61.3166 33.8015 60.3311 33.8015 59.1306V40.9614C33.8015 39.7609 32.8134 38.7754 31.6097 38.7754H31.6276ZM29.4358 56.9445H17.0394C16.231 56.9445 15.5842 56.2995 15.5842 55.4932V43.1295H29.4358V56.9445Z" fill="#3975E9"/>
</g>
<path d="M20.7436 120.211V110.041H17.1076V107.611H27.2236V110.041H23.4436V120.211H20.7436ZM29.1119 120.211V106.891H31.6499V112.633L31.1459 112.849C31.2659 112.417 31.4999 112.027 31.8479 111.679C32.1959 111.319 32.6099 111.031 33.0899 110.815C33.5699 110.599 34.0679 110.491 34.5839 110.491C35.3039 110.491 35.9039 110.635 36.3839 110.923C36.8759 111.211 37.2419 111.649 37.4819 112.237C37.7339 112.813 37.8599 113.533 37.8599 114.397V120.211H35.3039V114.577C35.3039 114.145 35.2439 113.785 35.1239 113.497C35.0039 113.209 34.8239 112.999 34.5839 112.867C34.3439 112.735 34.0379 112.675 33.6659 112.687C33.3779 112.687 33.1139 112.735 32.8739 112.831C32.6339 112.915 32.4179 113.041 32.2259 113.209C32.0459 113.377 31.9079 113.569 31.8119 113.785C31.7159 114.001 31.6679 114.241 31.6679 114.505V120.211H30.3899C30.1259 120.211 29.8859 120.211 29.6699 120.211C29.4539 120.211 29.2679 120.211 29.1119 120.211ZM45.6011 120.211V114.253C45.6011 113.749 45.4451 113.365 45.1331 113.101C44.8331 112.825 44.4251 112.687 43.9091 112.687C43.4171 112.687 42.9791 112.783 42.5951 112.975C42.2111 113.167 41.8511 113.467 41.5151 113.875L39.9491 112.363C40.5251 111.763 41.1671 111.301 41.8751 110.977C42.5951 110.653 43.3751 110.491 44.2151 110.491C44.9831 110.491 45.6491 110.611 46.2131 110.851C46.7891 111.091 47.2331 111.451 47.5451 111.931C47.8571 112.411 48.0131 113.017 48.0131 113.749V120.211H45.6011ZM42.9911 120.391C42.3911 120.391 41.8451 120.271 41.3531 120.031C40.8731 119.791 40.4891 119.461 40.2011 119.041C39.9251 118.609 39.7871 118.105 39.7871 117.529C39.7871 117.037 39.8771 116.605 40.0571 116.233C40.2371 115.849 40.5011 115.537 40.8491 115.297C41.2091 115.045 41.6531 114.853 42.1811 114.721C42.7211 114.589 43.3451 114.523 44.0531 114.523H46.8611L46.6991 116.233H44.0171C43.7291 116.233 43.4711 116.257 43.2431 116.305C43.0271 116.353 42.8411 116.431 42.6851 116.539C42.5411 116.647 42.4271 116.773 42.3431 116.917C42.2711 117.061 42.2351 117.229 42.2351 117.421C42.2351 117.625 42.2891 117.805 42.3971 117.961C42.5051 118.117 42.6491 118.237 42.8291 118.321C43.0211 118.405 43.2371 118.447 43.4771 118.447C43.8251 118.447 44.1551 118.387 44.4671 118.267C44.7911 118.147 45.0791 117.979 45.3311 117.763C45.5831 117.547 45.7811 117.301 45.9251 117.025L46.4111 118.303C46.1591 118.711 45.8531 119.071 45.4931 119.383C45.1331 119.695 44.7431 119.941 44.3231 120.121C43.9031 120.301 43.4591 120.391 42.9911 120.391ZM50.3295 120.211V110.689H52.7955L52.8675 112.633L52.3635 112.849C52.4835 112.417 52.7175 112.027 53.0655 111.679C53.4135 111.319 53.8275 111.031 54.3075 110.815C54.7875 110.599 55.2855 110.491 55.8015 110.491C56.5215 110.491 57.1215 110.635 57.6015 110.923C58.0935 111.211 58.4595 111.649 58.6995 112.237C58.9515 112.813 59.0775 113.533 59.0775 114.397V120.211H56.5215V114.577C56.5215 114.145 56.4615 113.785 56.3415 113.497C56.2215 113.209 56.0415 112.999 55.8015 112.867C55.5615 112.735 55.2555 112.675 54.8835 112.687C54.5955 112.687 54.3315 112.735 54.0915 112.831C53.8515 112.915 53.6355 113.041 53.4435 113.209C53.2635 113.377 53.1255 113.569 53.0295 113.785C52.9335 114.001 52.8855 114.241 52.8855 114.505V120.211H51.6075C51.3435 120.211 51.1035 120.211 50.8875 120.211C50.6715 120.211 50.4855 120.211 50.3295 120.211ZM61.5448 120.211V106.891H64.0828V112.633L63.5788 112.849C63.6988 112.417 63.9328 112.027 64.2808 111.679C64.6288 111.319 65.0428 111.031 65.5228 110.815C66.0028 110.599 66.5008 110.491 67.0168 110.491C67.7368 110.491 68.3368 110.635 68.8168 110.923C69.3088 111.211 69.6748 111.649 69.9148 112.237C70.1668 112.813 70.2928 113.533 70.2928 114.397V120.211H67.7368V114.577C67.7368 114.145 67.6768 113.785 67.5568 113.497C67.4368 113.209 67.2568 112.999 67.0168 112.867C66.7768 112.735 66.4708 112.675 66.0988 112.687C65.8108 112.687 65.5468 112.735 65.3068 112.831C65.0668 112.915 64.8508 113.041 64.6588 113.209C64.4788 113.377 64.3408 113.569 64.2448 113.785C64.1488 114.001 64.1008 114.241 64.1008 114.505V120.211H62.8228C62.5588 120.211 62.3188 120.211 62.1028 120.211C61.8868 120.211 61.7008 120.211 61.5448 120.211ZM79.198 120.211V108.277H81.754V120.211H79.198ZM77.416 112.975V110.689H83.716V112.975H77.416ZM89.7041 120.391C88.7441 120.391 87.8801 120.181 87.1121 119.761C86.3561 119.329 85.7561 118.741 85.3121 117.997C84.8801 117.253 84.6641 116.407 84.6641 115.459C84.6641 114.487 84.8801 113.629 85.3121 112.885C85.7561 112.141 86.3561 111.559 87.1121 111.139C87.8801 110.707 88.7441 110.491 89.7041 110.491C90.6761 110.491 91.5401 110.707 92.2961 111.139C93.0521 111.559 93.6461 112.141 94.0781 112.885C94.5221 113.629 94.7441 114.487 94.7441 115.459C94.7441 116.407 94.5221 117.253 94.0781 117.997C93.6461 118.741 93.0521 119.329 92.2961 119.761C91.5401 120.181 90.6761 120.391 89.7041 120.391ZM89.7041 118.177C90.1841 118.177 90.6041 118.057 90.9641 117.817C91.3361 117.577 91.6241 117.253 91.8281 116.845C92.0441 116.437 92.1461 115.975 92.1341 115.459C92.1461 114.919 92.0441 114.445 91.8281 114.037C91.6241 113.617 91.3361 113.293 90.9641 113.065C90.6041 112.825 90.1841 112.705 89.7041 112.705C89.2361 112.705 88.8161 112.825 88.4441 113.065C88.0721 113.305 87.7781 113.629 87.5621 114.037C87.3461 114.445 87.2441 114.919 87.2561 115.459C87.2441 115.975 87.3461 116.437 87.5621 116.845C87.7781 117.253 88.0721 117.577 88.4441 117.817C88.8161 118.057 89.2361 118.177 89.7041 118.177ZM101.959 120.211V114.253C101.959 113.749 101.803 113.365 101.491 113.101C101.191 112.825 100.783 112.687 100.267 112.687C99.7751 112.687 99.3371 112.783 98.9531 112.975C98.5691 113.167 98.2091 113.467 97.8731 113.875L96.3071 112.363C96.8831 111.763 97.5251 111.301 98.2331 110.977C98.9531 110.653 99.7331 110.491 100.573 110.491C101.341 110.491 102.007 110.611 102.571 110.851C103.147 111.091 103.591 111.451 103.903 111.931C104.215 112.411 104.371 113.017 104.371 113.749V120.211H101.959ZM99.3491 120.391C98.7491 120.391 98.2031 120.271 97.7111 120.031C97.2311 119.791 96.8471 119.461 96.5591 119.041C96.2831 118.609 96.1451 118.105 96.1451 117.529C96.1451 117.037 96.2351 116.605 96.4151 116.233C96.5951 115.849 96.8591 115.537 97.2071 115.297C97.5671 115.045 98.0111 114.853 98.5391 114.721C99.0791 114.589 99.7031 114.523 100.411 114.523H103.219L103.057 116.233H100.375C100.087 116.233 99.8291 116.257 99.6011 116.305C99.3851 116.353 99.1991 116.431 99.0431 116.539C98.8991 116.647 98.7851 116.773 98.7011 116.917C98.6291 117.061 98.5931 117.229 98.5931 117.421C98.5931 117.625 98.6471 117.805 98.7551 117.961C98.8631 118.117 99.0071 118.237 99.1871 118.321C99.3791 118.405 99.5951 118.447 99.8351 118.447C100.183 118.447 100.513 118.387 100.825 118.267C101.149 118.147 101.437 117.979 101.689 117.763C101.941 117.547 102.139 117.301 102.283 117.025L102.769 118.303C102.517 118.711 102.211 119.071 101.851 119.383C101.491 119.695 101.101 119.941 100.681 120.121C100.261 120.301 99.8171 120.391 99.3491 120.391ZM99.0431 109.501L98.2511 108.313L101.257 105.865L102.535 107.629L99.0431 109.501ZM106.688 120.211V110.689H109.154L109.226 112.633L108.722 112.849C108.842 112.417 109.076 112.027 109.424 111.679C109.772 111.319 110.186 111.031 110.666 110.815C111.146 110.599 111.644 110.491 112.16 110.491C112.88 110.491 113.48 110.635 113.96 110.923C114.452 111.211 114.818 111.649 115.058 112.237C115.31 112.813 115.436 113.533 115.436 114.397V120.211H112.88V114.577C112.88 114.145 112.82 113.785 112.7 113.497C112.58 113.209 112.4 112.999 112.16 112.867C111.92 112.735 111.614 112.675 111.242 112.687C110.954 112.687 110.69 112.735 110.45 112.831C110.21 112.915 109.994 113.041 109.802 113.209C109.622 113.377 109.484 113.569 109.388 113.785C109.292 114.001 109.244 114.241 109.244 114.505V120.211H107.966C107.702 120.211 107.462 120.211 107.246 120.211C107.03 120.211 106.844 120.211 106.688 120.211ZM123.423 120.211V110.689H125.889L125.961 112.633L125.457 112.849C125.577 112.417 125.811 112.027 126.159 111.679C126.507 111.319 126.921 111.031 127.401 110.815C127.881 110.599 128.379 110.491 128.895 110.491C129.615 110.491 130.215 110.635 130.695 110.923C131.187 111.211 131.553 111.649 131.793 112.237C132.045 112.813 132.171 113.533 132.171 114.397V120.211H129.615V114.577C129.615 114.145 129.555 113.785 129.435 113.497C129.315 113.209 129.135 112.999 128.895 112.867C128.655 112.735 128.349 112.675 127.977 112.687C127.689 112.687 127.425 112.735 127.185 112.831C126.945 112.915 126.729 113.041 126.537 113.209C126.357 113.377 126.219 113.569 126.123 113.785C126.027 114.001 125.979 114.241 125.979 114.505V120.211H124.701C124.437 120.211 124.197 120.211 123.981 120.211C123.765 120.211 123.579 120.211 123.423 120.211ZM134.638 120.211V106.891H137.176V112.633L136.672 112.849C136.792 112.417 137.026 112.027 137.374 111.679C137.722 111.319 138.136 111.031 138.616 110.815C139.096 110.599 139.594 110.491 140.11 110.491C140.83 110.491 141.43 110.635 141.91 110.923C142.402 111.211 142.768 111.649 143.008 112.237C143.26 112.813 143.386 113.533 143.386 114.397V120.211H140.83V114.577C140.83 114.145 140.77 113.785 140.65 113.497C140.53 113.209 140.35 112.999 140.11 112.867C139.87 112.735 139.564 112.675 139.192 112.687C138.904 112.687 138.64 112.735 138.4 112.831C138.16 112.915 137.944 113.041 137.752 113.209C137.572 113.377 137.434 113.569 137.338 113.785C137.242 114.001 137.194 114.241 137.194 114.505V120.211H135.916C135.652 120.211 135.412 120.211 135.196 120.211C134.98 120.211 134.794 120.211 134.638 120.211ZM151.127 120.211V114.253C151.127 113.749 150.971 113.365 150.659 113.101C150.359 112.825 149.951 112.687 149.435 112.687C148.943 112.687 148.505 112.783 148.121 112.975C147.737 113.167 147.377 113.467 147.041 113.875L145.475 112.363C146.051 111.763 146.693 111.301 147.401 110.977C148.121 110.653 148.901 110.491 149.741 110.491C150.509 110.491 151.175 110.611 151.739 110.851C152.315 111.091 152.759 111.451 153.071 111.931C153.383 112.411 153.539 113.017 153.539 113.749V120.211H151.127ZM148.517 120.391C147.917 120.391 147.371 120.271 146.879 120.031C146.399 119.791 146.015 119.461 145.727 119.041C145.451 118.609 145.313 118.105 145.313 117.529C145.313 117.037 145.403 116.605 145.583 116.233C145.763 115.849 146.027 115.537 146.375 115.297C146.735 115.045 147.179 114.853 147.707 114.721C148.247 114.589 148.871 114.523 149.579 114.523H152.387L152.225 116.233H149.543C149.255 116.233 148.997 116.257 148.769 116.305C148.553 116.353 148.367 116.431 148.211 116.539C148.067 116.647 147.953 116.773 147.869 116.917C147.797 117.061 147.761 117.229 147.761 117.421C147.761 117.625 147.815 117.805 147.923 117.961C148.031 118.117 148.175 118.237 148.355 118.321C148.547 118.405 148.763 118.447 149.003 118.447C149.351 118.447 149.681 118.387 149.993 118.267C150.317 118.147 150.605 117.979 150.857 117.763C151.109 117.547 151.307 117.301 151.451 117.025L151.937 118.303C151.685 118.711 151.379 119.071 151.019 119.383C150.659 119.695 150.269 119.941 149.849 120.121C149.429 120.301 148.985 120.391 148.517 120.391ZM155.856 120.211V110.689H158.322L158.394 112.633L157.89 112.849C158.01 112.417 158.244 112.027 158.592 111.679C158.94 111.319 159.354 111.031 159.834 110.815C160.314 110.599 160.812 110.491 161.328 110.491C162.048 110.491 162.648 110.635 163.128 110.923C163.62 111.211 163.986 111.649 164.226 112.237C164.478 112.813 164.604 113.533 164.604 114.397V120.211H162.048V114.577C162.048 114.145 161.988 113.785 161.868 113.497C161.748 113.209 161.568 112.999 161.328 112.867C161.088 112.735 160.782 112.675 160.41 112.687C160.122 112.687 159.858 112.735 159.618 112.831C159.378 112.915 159.162 113.041 158.97 113.209C158.79 113.377 158.652 113.569 158.556 113.785C158.46 114.001 158.412 114.241 158.412 114.505V120.211H157.134C156.87 120.211 156.63 120.211 156.414 120.211C156.198 120.211 156.012 120.211 155.856 120.211ZM167.071 120.211V106.891H169.609V112.633L169.105 112.849C169.225 112.417 169.459 112.027 169.807 111.679C170.155 111.319 170.569 111.031 171.049 110.815C171.529 110.599 172.027 110.491 172.543 110.491C173.263 110.491 173.863 110.635 174.343 110.923C174.835 111.211 175.201 111.649 175.441 112.237C175.693 112.813 175.819 113.533 175.819 114.397V120.211H173.263V114.577C173.263 114.145 173.203 113.785 173.083 113.497C172.963 113.209 172.783 112.999 172.543 112.867C172.303 112.735 171.997 112.675 171.625 112.687C171.337 112.687 171.073 112.735 170.833 112.831C170.593 112.915 170.377 113.041 170.185 113.209C170.005 113.377 169.867 113.569 169.771 113.785C169.675 114.001 169.627 114.241 169.627 114.505V120.211H168.349C168.085 120.211 167.845 120.211 167.629 120.211C167.413 120.211 167.227 120.211 167.071 120.211ZM187.946 120.391C187.034 120.391 186.218 120.175 185.498 119.743C184.778 119.311 184.208 118.723 183.788 117.979C183.38 117.223 183.176 116.383 183.176 115.459C183.176 114.511 183.38 113.665 183.788 112.921C184.208 112.165 184.778 111.571 185.498 111.139C186.218 110.707 187.034 110.491 187.946 110.491C188.798 110.491 189.572 110.653 190.268 110.977C190.976 111.289 191.528 111.721 191.924 112.273L190.538 113.965C190.37 113.737 190.16 113.527 189.908 113.335C189.656 113.143 189.38 112.993 189.08 112.885C188.792 112.777 188.492 112.723 188.18 112.723C187.688 112.723 187.25 112.843 186.866 113.083C186.482 113.311 186.182 113.635 185.966 114.055C185.75 114.463 185.642 114.925 185.642 115.441C185.642 115.945 185.756 116.401 185.984 116.809C186.212 117.217 186.518 117.541 186.902 117.781C187.286 118.021 187.712 118.141 188.18 118.141C188.492 118.141 188.786 118.099 189.062 118.015C189.35 117.919 189.614 117.781 189.854 117.601C190.094 117.421 190.322 117.211 190.538 116.971L191.924 118.663C191.528 119.179 190.964 119.599 190.232 119.923C189.512 120.235 188.75 120.391 187.946 120.391ZM193.58 120.211V106.891H196.118V112.633L195.614 112.849C195.734 112.417 195.968 112.027 196.316 111.679C196.664 111.319 197.078 111.031 197.558 110.815C198.038 110.599 198.536 110.491 199.052 110.491C199.772 110.491 200.372 110.635 200.852 110.923C201.344 111.211 201.71 111.649 201.95 112.237C202.202 112.813 202.328 113.533 202.328 114.397V120.211H199.772V114.577C199.772 114.145 199.712 113.785 199.592 113.497C199.472 113.209 199.292 112.999 199.052 112.867C198.812 112.735 198.506 112.675 198.134 112.687C197.846 112.687 197.582 112.735 197.342 112.831C197.102 112.915 196.886 113.041 196.694 113.209C196.514 113.377 196.376 113.569 196.28 113.785C196.184 114.001 196.136 114.241 196.136 114.505V120.211H194.858C194.594 120.211 194.354 120.211 194.138 120.211C193.922 120.211 193.736 120.211 193.58 120.211ZM209.205 120.391C208.245 120.391 207.381 120.181 206.613 119.761C205.857 119.329 205.257 118.741 204.813 117.997C204.381 117.253 204.165 116.407 204.165 115.459C204.165 114.487 204.381 113.629 204.813 112.885C205.257 112.141 205.857 111.559 206.613 111.139C207.381 110.707 208.245 110.491 209.205 110.491C210.177 110.491 211.041 110.707 211.797 111.139C212.553 111.559 213.147 112.141 213.579 112.885C214.023 113.629 214.245 114.487 214.245 115.459C214.245 116.407 214.023 117.253 213.579 117.997C213.147 118.741 212.553 119.329 211.797 119.761C211.041 120.181 210.177 120.391 209.205 120.391ZM209.205 118.177C209.685 118.177 210.105 118.057 210.465 117.817C210.837 117.577 211.125 117.253 211.329 116.845C211.545 116.437 211.647 115.975 211.635 115.459C211.647 114.919 211.545 114.445 211.329 114.037C211.125 113.617 210.837 113.293 210.465 113.065C210.105 112.825 209.685 112.705 209.205 112.705C208.737 112.705 208.317 112.825 207.945 113.065C207.573 113.305 207.279 113.629 207.063 114.037C206.847 114.445 206.745 114.919 206.757 115.459C206.745 115.975 206.847 116.437 207.063 116.845C207.279 117.253 207.573 117.577 207.945 117.817C208.317 118.057 208.737 118.177 209.205 118.177ZM207.855 109.501L207.063 108.313L210.069 105.865L211.347 107.629L207.855 109.501ZM216.186 120.211V110.689H218.652L218.724 112.633L218.22 112.849C218.34 112.417 218.574 112.027 218.922 111.679C219.27 111.319 219.684 111.031 220.164 110.815C220.644 110.599 221.142 110.491 221.658 110.491C222.378 110.491 222.978 110.635 223.458 110.923C223.95 111.211 224.316 111.649 224.556 112.237C224.808 112.813 224.934 113.533 224.934 114.397V120.211H222.378V114.577C222.378 114.145 222.318 113.785 222.198 113.497C222.078 113.209 221.898 112.999 221.658 112.867C221.418 112.735 221.112 112.675 220.74 112.687C220.452 112.687 220.188 112.735 219.948 112.831C219.708 112.915 219.492 113.041 219.3 113.209C219.12 113.377 218.982 113.569 218.886 113.785C218.79 114.001 218.742 114.241 218.742 114.505V120.211H217.464C217.2 120.211 216.96 120.211 216.744 120.211C216.528 120.211 216.342 120.211 216.186 120.211ZM231.74 124.351C230.996 124.351 230.252 124.243 229.508 124.027C228.776 123.811 228.182 123.523 227.726 123.163L228.626 121.327C229.01 121.591 229.448 121.801 229.94 121.957C230.444 122.113 230.96 122.191 231.488 122.191C232.124 122.191 232.64 122.095 233.036 121.903C233.444 121.711 233.744 121.423 233.936 121.039C234.14 120.667 234.242 120.193 234.242 119.617V117.961L234.674 118.069C234.602 118.441 234.398 118.795 234.062 119.131C233.738 119.455 233.336 119.719 232.856 119.923C232.376 120.127 231.872 120.229 231.344 120.229C230.468 120.229 229.682 120.025 228.986 119.617C228.302 119.197 227.762 118.627 227.366 117.907C226.97 117.187 226.772 116.359 226.772 115.423C226.772 114.463 226.97 113.611 227.366 112.867C227.762 112.123 228.296 111.541 228.968 111.121C229.652 110.701 230.42 110.491 231.272 110.491C231.632 110.491 231.974 110.533 232.298 110.617C232.634 110.701 232.94 110.821 233.216 110.977C233.504 111.121 233.762 111.283 233.99 111.463C234.218 111.643 234.404 111.841 234.548 112.057C234.692 112.273 234.782 112.489 234.818 112.705L234.278 112.867L234.35 110.689H236.816V119.491C236.816 120.259 236.696 120.943 236.456 121.543C236.228 122.155 235.892 122.665 235.448 123.073C235.016 123.493 234.488 123.811 233.864 124.027C233.24 124.243 232.532 124.351 231.74 124.351ZM231.812 118.159C232.316 118.159 232.754 118.045 233.126 117.817C233.51 117.589 233.804 117.271 234.008 116.863C234.224 116.455 234.332 115.981 234.332 115.441C234.332 114.889 234.224 114.409 234.008 114.001C233.804 113.593 233.51 113.275 233.126 113.047C232.754 112.807 232.316 112.687 231.812 112.687C231.32 112.687 230.888 112.807 230.516 113.047C230.144 113.275 229.85 113.593 229.634 114.001C229.43 114.409 229.328 114.883 229.328 115.423C229.328 115.963 229.43 116.443 229.634 116.863C229.85 117.271 230.144 117.589 230.516 117.817C230.888 118.045 231.32 118.159 231.812 118.159ZM52.926 140.211V128.277H55.482V140.211H52.926ZM51.144 132.975V130.689H57.444V132.975H51.144ZM64.2961 140.211V134.253C64.2961 133.749 64.1401 133.365 63.8281 133.101C63.5281 132.825 63.1201 132.687 62.6041 132.687C62.1121 132.687 61.6741 132.783 61.2901 132.975C60.9061 133.167 60.5461 133.467 60.2101 133.875L58.6441 132.363C59.2201 131.763 59.8621 131.301 60.5701 130.977C61.2901 130.653 62.0701 130.491 62.9101 130.491C63.6781 130.491 64.3441 130.611 64.9081 130.851C65.4841 131.091 65.9281 131.451 66.2401 131.931C66.5521 132.411 66.7081 133.017 66.7081 133.749V140.211H64.2961ZM61.6861 140.391C61.0861 140.391 60.5401 140.271 60.0481 140.031C59.5681 139.791 59.1841 139.461 58.8961 139.041C58.6201 138.609 58.4821 138.105 58.4821 137.529C58.4821 137.037 58.5721 136.605 58.7521 136.233C58.9321 135.849 59.1961 135.537 59.5441 135.297C59.9041 135.045 60.3481 134.853 60.8761 134.721C61.4161 134.589 62.0401 134.523 62.7481 134.523H65.5561L65.3941 136.233H62.7121C62.4241 136.233 62.1661 136.257 61.9381 136.305C61.7221 136.353 61.5361 136.431 61.3801 136.539C61.2361 136.647 61.1221 136.773 61.0381 136.917C60.9661 137.061 60.9301 137.229 60.9301 137.421C60.9301 137.625 60.9841 137.805 61.0921 137.961C61.2001 138.117 61.3441 138.237 61.5241 138.321C61.7161 138.405 61.9321 138.447 62.1721 138.447C62.5201 138.447 62.8501 138.387 63.1621 138.267C63.4861 138.147 63.7741 137.979 64.0261 137.763C64.2781 137.547 64.4761 137.301 64.6201 137.025L65.1061 138.303C64.8541 138.711 64.5481 139.071 64.1881 139.383C63.8281 139.695 63.4381 139.941 63.0181 140.121C62.5981 140.301 62.1541 140.391 61.6861 140.391ZM62.7481 144.153C62.2441 144.153 61.8541 144.027 61.5781 143.775C61.3021 143.523 61.1641 143.175 61.1641 142.731C61.1641 142.311 61.3021 141.969 61.5781 141.705C61.8661 141.441 62.2561 141.309 62.7481 141.309C63.2521 141.309 63.6421 141.435 63.9181 141.687C64.2061 141.939 64.3501 142.287 64.3501 142.731C64.3501 143.151 64.2061 143.493 63.9181 143.757C63.6301 144.021 63.2401 144.153 62.7481 144.153ZM69.2405 140.211V130.689H71.7965V140.211H69.2405ZM70.5185 128.727C70.0145 128.727 69.6245 128.607 69.3485 128.367C69.0725 128.127 68.9345 127.785 68.9345 127.341C68.9345 126.933 69.0725 126.603 69.3485 126.351C69.6365 126.087 70.0265 125.955 70.5185 125.955C70.9985 125.955 71.3765 126.075 71.6525 126.315C71.9285 126.555 72.0665 126.897 72.0665 127.341C72.0665 127.761 71.9285 128.097 71.6525 128.349C71.3765 128.601 70.9985 128.727 70.5185 128.727ZM80.064 140.211V130.689H82.53L82.584 132.507L82.206 132.615C82.326 132.303 82.494 132.021 82.71 131.769C82.938 131.505 83.196 131.283 83.484 131.103C83.772 130.923 84.078 130.779 84.402 130.671C84.738 130.563 85.068 130.509 85.392 130.509C85.896 130.509 86.34 130.587 86.724 130.743C87.12 130.899 87.456 131.145 87.732 131.481C88.008 131.817 88.218 132.255 88.362 132.795L87.984 132.723L88.11 132.453C88.266 132.177 88.464 131.919 88.704 131.679C88.944 131.439 89.214 131.235 89.514 131.067C89.814 130.887 90.126 130.749 90.45 130.653C90.774 130.557 91.092 130.509 91.404 130.509C92.148 130.509 92.76 130.659 93.24 130.959C93.732 131.259 94.098 131.703 94.338 132.291C94.59 132.867 94.716 133.587 94.716 134.451V140.211H92.16V134.631C92.16 133.983 92.028 133.503 91.764 133.191C91.512 132.879 91.122 132.723 90.594 132.723C90.318 132.723 90.06 132.771 89.82 132.867C89.58 132.951 89.376 133.077 89.208 133.245C89.04 133.413 88.908 133.605 88.812 133.821C88.716 134.037 88.668 134.277 88.668 134.541V140.211H86.112V134.595C86.112 133.995 85.974 133.533 85.698 133.209C85.434 132.885 85.05 132.723 84.546 132.723C84.282 132.723 84.03 132.771 83.79 132.867C83.55 132.951 83.346 133.077 83.178 133.245C83.01 133.401 82.878 133.593 82.782 133.821C82.686 134.037 82.638 134.277 82.638 134.541V140.211H80.064ZM101.578 140.391C100.618 140.391 99.7543 140.181 98.9863 139.761C98.2303 139.329 97.6303 138.741 97.1863 137.997C96.7543 137.253 96.5383 136.407 96.5383 135.459C96.5383 134.487 96.7543 133.629 97.1863 132.885C97.6303 132.141 98.2303 131.559 98.9863 131.139C99.7543 130.707 100.618 130.491 101.578 130.491C102.55 130.491 103.414 130.707 104.17 131.139C104.926 131.559 105.52 132.141 105.952 132.885C106.396 133.629 106.618 134.487 106.618 135.459C106.618 136.407 106.396 137.253 105.952 137.997C105.52 138.741 104.926 139.329 104.17 139.761C103.414 140.181 102.55 140.391 101.578 140.391ZM101.578 138.177C102.058 138.177 102.478 138.057 102.838 137.817C103.21 137.577 103.498 137.253 103.702 136.845C103.918 136.437 104.02 135.975 104.008 135.459C104.02 134.919 103.918 134.445 103.702 134.037C103.498 133.617 103.21 133.293 102.838 133.065C102.478 132.825 102.058 132.705 101.578 132.705C101.11 132.705 100.69 132.825 100.318 133.065C99.9463 133.305 99.6523 133.629 99.4363 134.037C99.2203 134.445 99.1183 134.919 99.1303 135.459C99.1183 135.975 99.2203 136.437 99.4363 136.845C99.6523 137.253 99.9463 137.577 100.318 137.817C100.69 138.057 101.11 138.177 101.578 138.177ZM101.578 144.153C101.074 144.153 100.684 144.027 100.408 143.775C100.132 143.523 99.9943 143.175 99.9943 142.731C99.9943 142.311 100.132 141.969 100.408 141.705C100.696 141.441 101.086 141.309 101.578 141.309C102.082 141.309 102.472 141.435 102.748 141.687C103.036 141.939 103.18 142.287 103.18 142.731C103.18 143.151 103.036 143.493 102.748 143.757C102.46 144.021 102.07 144.153 101.578 144.153ZM108.775 140.211V130.689H111.331V140.211H108.775ZM110.053 128.727C109.549 128.727 109.159 128.607 108.883 128.367C108.607 128.127 108.469 127.785 108.469 127.341C108.469 126.933 108.607 126.603 108.883 126.351C109.171 126.087 109.561 125.955 110.053 125.955C110.533 125.955 110.911 126.075 111.187 126.315C111.463 126.555 111.601 126.897 111.601 127.341C111.601 127.761 111.463 128.097 111.187 128.349C110.911 128.601 110.533 128.727 110.053 128.727ZM123.757 140.391C122.845 140.391 122.029 140.175 121.309 139.743C120.589 139.311 120.019 138.723 119.599 137.979C119.191 137.223 118.987 136.383 118.987 135.459C118.987 134.511 119.191 133.665 119.599 132.921C120.019 132.165 120.589 131.571 121.309 131.139C122.029 130.707 122.845 130.491 123.757 130.491C124.609 130.491 125.383 130.653 126.079 130.977C126.787 131.289 127.339 131.721 127.735 132.273L126.349 133.965C126.181 133.737 125.971 133.527 125.719 133.335C125.467 133.143 125.191 132.993 124.891 132.885C124.603 132.777 124.303 132.723 123.991 132.723C123.499 132.723 123.061 132.843 122.677 133.083C122.293 133.311 121.993 133.635 121.777 134.055C121.561 134.463 121.453 134.925 121.453 135.441C121.453 135.945 121.567 136.401 121.795 136.809C122.023 137.217 122.329 137.541 122.713 137.781C123.097 138.021 123.523 138.141 123.991 138.141C124.303 138.141 124.597 138.099 124.873 138.015C125.161 137.919 125.425 137.781 125.665 137.601C125.905 137.421 126.133 137.211 126.349 136.971L127.735 138.663C127.339 139.179 126.775 139.599 126.043 139.923C125.323 140.235 124.561 140.391 123.757 140.391ZM132.667 140.391C131.983 140.391 131.389 140.241 130.885 139.941C130.381 139.629 129.991 139.191 129.715 138.627C129.451 138.051 129.319 137.367 129.319 136.575V130.689H131.875V136.107C131.875 136.779 132.031 137.307 132.343 137.691C132.667 138.063 133.111 138.249 133.675 138.249C133.963 138.249 134.221 138.207 134.449 138.123C134.689 138.027 134.893 137.895 135.061 137.727C135.229 137.559 135.361 137.361 135.457 137.133C135.553 136.905 135.601 136.653 135.601 136.377V130.689C136.165 130.689 136.609 130.617 136.933 130.473C137.257 130.329 137.485 130.107 137.617 129.807C137.761 129.507 137.833 129.117 137.833 128.637H139.795C139.795 129.165 139.717 129.663 139.561 130.131C139.405 130.587 139.159 130.971 138.823 131.283C138.487 131.595 138.055 131.799 137.527 131.895L138.157 130.995V140.211H135.727L135.655 138.051L135.925 138.429C135.757 138.801 135.505 139.137 135.169 139.437C134.833 139.737 134.449 139.971 134.017 140.139C133.597 140.307 133.147 140.391 132.667 140.391ZM133.351 129.555C133.255 129.435 133.177 129.315 133.117 129.195C133.057 129.075 133.027 128.943 133.027 128.799C133.027 128.679 133.063 128.553 133.135 128.421C133.207 128.277 133.351 128.127 133.567 127.971C133.735 127.863 133.867 127.773 133.963 127.701C134.059 127.617 134.107 127.521 134.107 127.413C134.107 127.317 134.053 127.245 133.945 127.197C133.849 127.137 133.717 127.107 133.549 127.107C133.333 127.107 133.099 127.143 132.847 127.215C132.595 127.275 132.355 127.359 132.127 127.467L131.731 126.063C131.995 125.919 132.301 125.805 132.649 125.721C133.009 125.625 133.369 125.577 133.729 125.577C134.389 125.577 134.905 125.721 135.277 126.009C135.649 126.297 135.835 126.669 135.835 127.125C135.835 127.485 135.757 127.761 135.601 127.953C135.445 128.145 135.283 128.295 135.115 128.403C134.911 128.523 134.743 128.631 134.611 128.727C134.491 128.823 134.431 128.931 134.431 129.051C134.431 129.099 134.437 129.141 134.449 129.177C134.461 129.213 134.473 129.249 134.485 129.285L133.351 129.555ZM146.021 140.211V134.253C146.021 133.749 145.865 133.365 145.553 133.101C145.253 132.825 144.845 132.687 144.329 132.687C143.837 132.687 143.399 132.783 143.015 132.975C142.631 133.167 142.271 133.467 141.935 133.875L140.369 132.363C140.945 131.763 141.587 131.301 142.295 130.977C143.015 130.653 143.795 130.491 144.635 130.491C145.403 130.491 146.069 130.611 146.633 130.851C147.209 131.091 147.653 131.451 147.965 131.931C148.277 132.411 148.433 133.017 148.433 133.749V140.211H146.021ZM143.411 140.391C142.811 140.391 142.265 140.271 141.773 140.031C141.293 139.791 140.909 139.461 140.621 139.041C140.345 138.609 140.207 138.105 140.207 137.529C140.207 137.037 140.297 136.605 140.477 136.233C140.657 135.849 140.921 135.537 141.269 135.297C141.629 135.045 142.073 134.853 142.601 134.721C143.141 134.589 143.765 134.523 144.473 134.523H147.281L147.119 136.233H144.437C144.149 136.233 143.891 136.257 143.663 136.305C143.447 136.353 143.261 136.431 143.105 136.539C142.961 136.647 142.847 136.773 142.763 136.917C142.691 137.061 142.655 137.229 142.655 137.421C142.655 137.625 142.709 137.805 142.817 137.961C142.925 138.117 143.069 138.237 143.249 138.321C143.441 138.405 143.657 138.447 143.897 138.447C144.245 138.447 144.575 138.387 144.887 138.267C145.211 138.147 145.499 137.979 145.751 137.763C146.003 137.547 146.201 137.301 146.345 137.025L146.831 138.303C146.579 138.711 146.273 139.071 145.913 139.383C145.553 139.695 145.163 139.941 144.743 140.121C144.323 140.301 143.879 140.391 143.411 140.391ZM156.269 140.211V126.891H158.807V132.633L158.303 132.849C158.423 132.417 158.657 132.027 159.005 131.679C159.353 131.319 159.767 131.031 160.247 130.815C160.727 130.599 161.225 130.491 161.741 130.491C162.461 130.491 163.061 130.635 163.541 130.923C164.033 131.211 164.399 131.649 164.639 132.237C164.891 132.813 165.017 133.533 165.017 134.397V140.211H162.461V134.577C162.461 134.145 162.401 133.785 162.281 133.497C162.161 133.209 161.981 132.999 161.741 132.867C161.501 132.735 161.195 132.675 160.823 132.687C160.535 132.687 160.271 132.735 160.031 132.831C159.791 132.915 159.575 133.041 159.383 133.209C159.203 133.377 159.065 133.569 158.969 133.785C158.873 134.001 158.825 134.241 158.825 134.505V140.211H157.547C157.283 140.211 157.043 140.211 156.827 140.211C156.611 140.211 156.425 140.211 156.269 140.211ZM172.758 140.211V134.253C172.758 133.749 172.602 133.365 172.29 133.101C171.99 132.825 171.582 132.687 171.066 132.687C170.574 132.687 170.136 132.783 169.752 132.975C169.368 133.167 169.008 133.467 168.672 133.875L167.106 132.363C167.682 131.763 168.324 131.301 169.032 130.977C169.752 130.653 170.532 130.491 171.372 130.491C172.14 130.491 172.806 130.611 173.37 130.851C173.946 131.091 174.39 131.451 174.702 131.931C175.014 132.411 175.17 133.017 175.17 133.749V140.211H172.758ZM170.148 140.391C169.548 140.391 169.002 140.271 168.51 140.031C168.03 139.791 167.646 139.461 167.358 139.041C167.082 138.609 166.944 138.105 166.944 137.529C166.944 137.037 167.034 136.605 167.214 136.233C167.394 135.849 167.658 135.537 168.006 135.297C168.366 135.045 168.81 134.853 169.338 134.721C169.878 134.589 170.502 134.523 171.21 134.523H174.018L173.856 136.233H171.174C170.886 136.233 170.628 136.257 170.4 136.305C170.184 136.353 169.998 136.431 169.842 136.539C169.698 136.647 169.584 136.773 169.5 136.917C169.428 137.061 169.392 137.229 169.392 137.421C169.392 137.625 169.446 137.805 169.554 137.961C169.662 138.117 169.806 138.237 169.986 138.321C170.178 138.405 170.394 138.447 170.634 138.447C170.982 138.447 171.312 138.387 171.624 138.267C171.948 138.147 172.236 137.979 172.488 137.763C172.74 137.547 172.938 137.301 173.082 137.025L173.568 138.303C173.316 138.711 173.01 139.071 172.65 139.383C172.29 139.695 171.9 139.941 171.48 140.121C171.06 140.301 170.616 140.391 170.148 140.391ZM172.2 129.501L168.708 127.611L169.986 125.865L172.992 128.295L172.2 129.501ZM177.487 140.211V130.689H179.953L180.025 132.633L179.521 132.849C179.641 132.417 179.875 132.027 180.223 131.679C180.571 131.319 180.985 131.031 181.465 130.815C181.945 130.599 182.443 130.491 182.959 130.491C183.679 130.491 184.279 130.635 184.759 130.923C185.251 131.211 185.617 131.649 185.857 132.237C186.109 132.813 186.235 133.533 186.235 134.397V140.211H183.679V134.577C183.679 134.145 183.619 133.785 183.499 133.497C183.379 133.209 183.199 132.999 182.959 132.867C182.719 132.735 182.413 132.675 182.041 132.687C181.753 132.687 181.489 132.735 181.249 132.831C181.009 132.915 180.793 133.041 180.601 133.209C180.421 133.377 180.283 133.569 180.187 133.785C180.091 134.001 180.043 134.241 180.043 134.505V140.211H178.765C178.501 140.211 178.261 140.211 178.045 140.211C177.829 140.211 177.643 140.211 177.487 140.211ZM193.04 144.351C192.296 144.351 191.552 144.243 190.808 144.027C190.076 143.811 189.482 143.523 189.026 143.163L189.926 141.327C190.31 141.591 190.748 141.801 191.24 141.957C191.744 142.113 192.26 142.191 192.788 142.191C193.424 142.191 193.94 142.095 194.336 141.903C194.744 141.711 195.044 141.423 195.236 141.039C195.44 140.667 195.542 140.193 195.542 139.617V137.961L195.974 138.069C195.902 138.441 195.698 138.795 195.362 139.131C195.038 139.455 194.636 139.719 194.156 139.923C193.676 140.127 193.172 140.229 192.644 140.229C191.768 140.229 190.982 140.025 190.286 139.617C189.602 139.197 189.062 138.627 188.666 137.907C188.27 137.187 188.072 136.359 188.072 135.423C188.072 134.463 188.27 133.611 188.666 132.867C189.062 132.123 189.596 131.541 190.268 131.121C190.952 130.701 191.72 130.491 192.572 130.491C192.932 130.491 193.274 130.533 193.598 130.617C193.934 130.701 194.24 130.821 194.516 130.977C194.804 131.121 195.062 131.283 195.29 131.463C195.518 131.643 195.704 131.841 195.848 132.057C195.992 132.273 196.082 132.489 196.118 132.705L195.578 132.867L195.65 130.689H198.116V139.491C198.116 140.259 197.996 140.943 197.756 141.543C197.528 142.155 197.192 142.665 196.748 143.073C196.316 143.493 195.788 143.811 195.164 144.027C194.54 144.243 193.832 144.351 193.04 144.351ZM193.112 138.159C193.616 138.159 194.054 138.045 194.426 137.817C194.81 137.589 195.104 137.271 195.308 136.863C195.524 136.455 195.632 135.981 195.632 135.441C195.632 134.889 195.524 134.409 195.308 134.001C195.104 133.593 194.81 133.275 194.426 133.047C194.054 132.807 193.616 132.687 193.112 132.687C192.62 132.687 192.188 132.807 191.816 133.047C191.444 133.275 191.15 133.593 190.934 134.001C190.73 134.409 190.628 134.883 190.628 135.423C190.628 135.963 190.73 136.443 190.934 136.863C191.15 137.271 191.444 137.589 191.816 137.817C192.188 138.045 192.62 138.159 193.112 138.159ZM201.591 140.409C201.135 140.409 200.781 140.277 200.529 140.013C200.277 139.749 200.151 139.371 200.151 138.879C200.151 138.423 200.283 138.051 200.547 137.763C200.811 137.475 201.159 137.331 201.591 137.331C202.059 137.331 202.419 137.469 202.671 137.745C202.923 138.009 203.049 138.387 203.049 138.879C203.049 139.335 202.911 139.707 202.635 139.995C202.371 140.271 202.023 140.409 201.591 140.409Z" fill="#0F172A"/>
<defs>
<clipPath id="clip0_2265_61066">
<rect width="254" height="72.2107" fill="white" transform="translate(0.277344)"/>
</clipPath>
</defs>
</svg>
