<svg width="30" height="30" viewBox="0 0 30 30" fill="none" xmlns="http://www.w3.org/2000/svg">
<path d="M6 25H24" stroke="#C8C8C8" stroke-width="1.5" stroke-linecap="round" stroke-linejoin="round"/>
<path d="M6 14C6 13.0572 6 12.5858 6.29289 12.2929C6.58579 12 7.05719 12 8 12C8.94281 12 9.41421 12 9.70711 12.2929C10 12.5858 10 13.0572 10 14V20C10 20.9428 10 21.4142 9.70711 21.7071C9.41421 22 8.94281 22 8 22C7.05719 22 6.58579 22 6.29289 21.7071C6 21.4142 6 20.9428 6 20V14Z" stroke="#C8C8C8" stroke-width="1.5"/>
<path d="M13 10C13 9.05719 13 8.58579 13.2929 8.29289C13.5858 8 14.0572 8 15 8C15.9428 8 16.4142 8 16.7071 8.29289C17 8.58579 17 9.05719 17 10V20C17 20.9428 17 21.4142 16.7071 21.7071C16.4142 22 15.9428 22 15 22C14.0572 22 13.5858 22 13.2929 21.7071C13 21.4142 13 20.9428 13 20V10Z" stroke="#C8C8C8" stroke-width="1.5"/>
<path d="M20 7C20 6.05719 20 5.58579 20.2929 5.29289C20.5858 5 21.0572 5 22 5C22.9428 5 23.4142 5 23.7071 5.29289C24 5.58579 24 6.05719 24 7V20C24 20.9428 24 21.4142 23.7071 21.7071C23.4142 22 22.9428 22 22 22C21.0572 22 20.5858 22 20.2929 21.7071C20 21.4142 20 20.9428 20 20V7Z" stroke="#C8C8C8" stroke-width="1.5"/>
</svg>
