<svg width="18" height="10" viewBox="0 0 18 10" fill="none" xmlns="http://www.w3.org/2000/svg">
<path d="M1.68936 0.815084C1.52619 0.434361 1.08528 0.257998 0.704561 0.421164C0.323838 0.584331 0.147475 1.02524 0.310641 1.40596L1.68936 0.815084ZM11.8698 6.17348L11.5951 5.4756L11.8698 6.17348ZM6.75889 6.58252C6.98479 6.23534 6.88648 5.77075 6.53929 5.54485C6.1921 5.31894 5.72752 5.41726 5.50161 5.76444L6.75889 6.58252ZM4.37136 7.50148C4.14546 7.84867 4.24377 8.31326 4.59096 8.53916C4.93815 8.76507 5.40273 8.66675 5.62864 8.31956L4.37136 7.50148ZM17.6894 1.40596C17.8525 1.02524 17.6762 0.584331 17.2954 0.421164C16.9147 0.257998 16.4738 0.434362 16.3106 0.815084L17.6894 1.40596ZM14.6 4.41359L14.0867 3.86675L14.0867 3.86675L14.6 4.41359ZM15.2697 6.14392C15.5626 6.43682 16.0374 6.43682 16.3303 6.14392C16.6232 5.85103 16.6232 5.37616 16.3303 5.08326L15.2697 6.14392ZM8.25 8.71052C8.25 9.12474 8.58579 9.46052 9 9.46052C9.41421 9.46052 9.75 9.12474 9.75 8.71052H8.25ZM12.3714 8.31956C12.5973 8.66675 13.0619 8.76507 13.409 8.53916C13.7562 8.31326 13.8545 7.84867 13.6286 7.50148L12.3714 8.31956ZM3.93033 4.94392C4.22322 4.65103 4.22322 4.17616 3.93033 3.88326C3.63744 3.59037 3.16256 3.59037 2.86967 3.88326L3.93033 4.94392ZM1.66967 5.08326C1.37678 5.37616 1.37678 5.85103 1.66967 6.14392C1.96256 6.43682 2.43744 6.43682 2.73033 6.14392L1.66967 5.08326ZM9 5.96052C6.47611 5.96052 4.66133 4.70513 3.4496 3.40018C2.84395 2.74795 2.3995 2.09336 2.10697 1.60191C1.96113 1.3569 1.85421 1.1544 1.78488 1.01574C1.75025 0.946463 1.72507 0.893294 1.70919 0.858915C1.70126 0.841731 1.69565 0.829259 1.69235 0.821837C1.6907 0.818127 1.68963 0.815681 1.68913 0.81454C1.68888 0.81397 1.68878 0.813727 1.68881 0.813816C1.68883 0.81386 1.68889 0.813988 1.68898 0.814199C1.68902 0.814304 1.68912 0.814526 1.68914 0.814578C1.68925 0.81482 1.68936 0.815084 1 1.11052C0.310641 1.40596 0.310773 1.40627 0.310913 1.4066C0.310972 1.40673 0.311123 1.40708 0.311241 1.40736C0.311479 1.40791 0.311754 1.40855 0.312066 1.40927C0.312691 1.41072 0.313467 1.4125 0.314393 1.41462C0.316245 1.41887 0.3187 1.42445 0.321762 1.43134C0.327885 1.44511 0.336438 1.46408 0.347446 1.48791C0.369457 1.53557 0.401317 1.60271 0.443242 1.68656C0.527036 1.85415 0.651373 2.08915 0.81803 2.36914C1.1505 2.92769 1.65605 3.67309 2.3504 4.42086C3.73867 5.91592 5.92389 7.46052 9 7.46052V5.96052ZM11.5951 5.4756C10.8355 5.77459 9.97372 5.96052 9 5.96052V7.46052C10.1702 7.46052 11.2179 7.23606 12.1444 6.87137L11.5951 5.4756ZM5.50161 5.76444L4.37136 7.50148L5.62864 8.31956L6.75889 6.58252L5.50161 5.76444ZM17 1.11052C16.3106 0.815084 16.3107 0.814931 16.3108 0.814785C16.3108 0.814745 16.3108 0.814606 16.3109 0.814526C16.3109 0.814366 16.311 0.814233 16.3111 0.814126C16.3111 0.813912 16.3112 0.813803 16.3112 0.813798C16.3112 0.813788 16.311 0.814194 16.3107 0.815009C16.31 0.816638 16.3085 0.8199 16.3064 0.824736C16.302 0.834409 16.2948 0.850367 16.2847 0.872137C16.2644 0.915692 16.2324 0.982407 16.1885 1.06851C16.1006 1.24088 15.9654 1.48993 15.781 1.78576C15.411 2.37958 14.8504 3.14994 14.0867 3.86675L15.1133 4.96044C15.9965 4.13146 16.6358 3.25029 17.0541 2.57902C17.2639 2.2423 17.42 1.95542 17.5247 1.75C17.5771 1.6472 17.6169 1.56455 17.6442 1.50596C17.6578 1.47666 17.6684 1.45336 17.6759 1.43654C17.6797 1.42812 17.6827 1.42133 17.6849 1.41621C17.686 1.41366 17.687 1.41152 17.6877 1.40981C17.6881 1.40895 17.6884 1.4082 17.6887 1.40756C17.6888 1.40724 17.6889 1.40695 17.6891 1.40668C17.6891 1.40655 17.6892 1.40637 17.6892 1.4063C17.6893 1.40613 17.6894 1.40596 17 1.11052ZM14.0867 3.86675C13.4103 4.50165 12.5829 5.08676 11.5951 5.4756L12.1444 6.87137C13.3445 6.399 14.3292 5.69641 15.1133 4.96044L14.0867 3.86675ZM14.0697 4.94392L15.2697 6.14392L16.3303 5.08326L15.1303 3.88326L14.0697 4.94392ZM8.25 6.71052V8.71052H9.75V6.71052H8.25ZM11.2411 6.58252L12.3714 8.31956L13.6286 7.50148L12.4984 5.76444L11.2411 6.58252ZM2.86967 3.88326L1.66967 5.08326L2.73033 6.14392L3.93033 4.94392L2.86967 3.88326Z" fill="#1C274C"/>
</svg>
