<svg width="16" height="15" viewBox="0 0 16 15" fill="none" xmlns="http://www.w3.org/2000/svg">
<path d="M12.9 1H3.1C2.11005 1 1.61508 1 1.30754 1.28854C1 1.57708 1 2.04147 1 2.97026V3.45313C1 4.17962 1 4.54287 1.18172 4.84399C1.36344 5.14512 1.69543 5.33201 2.35941 5.70578L4.39853 6.85367C4.84402 7.10445 5.06677 7.22984 5.22626 7.3683C5.55839 7.65665 5.76285 7.99546 5.85551 8.41102C5.9 8.61057 5.9 8.84406 5.9 9.31105L5.9 11.1797C5.9 11.8164 5.9 12.1347 6.07635 12.3829C6.25269 12.6311 6.5659 12.7535 7.19231 12.9984C8.50735 13.5125 9.16487 13.7695 9.63244 13.4771C10.1 13.1846 10.1 12.5163 10.1 11.1797V9.31106C10.1 8.84406 10.1 8.61057 10.1445 8.41102C10.2371 7.99546 10.4416 7.65665 10.7737 7.3683C10.9332 7.22984 11.156 7.10445 11.6015 6.85367L13.6406 5.70578C14.3046 5.33201 14.6366 5.14512 14.8183 4.84399C15 4.54287 15 4.17962 15 3.45313V2.97026C15 2.04147 15 1.57708 14.6925 1.28854C14.3849 1 13.8899 1 12.9 1Z" stroke="#3975E9" stroke-width="1.5"/>
</svg>
