<svg width="52" height="52" viewBox="0 0 52 52" fill="none" xmlns="http://www.w3.org/2000/svg">
<path d="M36.8109 1H42.6758C47.2974 1 51.0001 4.72969 51.0001 9.32429V14.9189" stroke="#3975E9" stroke-width="2" stroke-linecap="round" stroke-linejoin="round"/>
<path d="M1 14.9189V9.32429C1 4.70267 4.72973 1 9.32433 1H15.0541" stroke="#3975E9" stroke-width="2" stroke-linecap="round" stroke-linejoin="round"/>
<path d="M36.8109 51.0001H42.6758C47.2974 51.0001 51.0001 47.2704 51.0001 42.6758V37.0812" stroke="#3975E9" stroke-width="2" stroke-linecap="round" stroke-linejoin="round"/>
<path d="M1 37.0812V42.6758C1 47.2974 4.72973 51.0001 9.32433 51.0001H15.0541" stroke="#3975E9" stroke-width="2" stroke-linecap="round" stroke-linejoin="round"/>
<path d="M41.8649 38.3784C37.2973 36.1081 31.8378 34.7838 26 34.7838C19.973 34.7838 14.3784 36.1892 9.72974 38.5946" stroke="#3975E9" stroke-width="2" stroke-linecap="round" stroke-linejoin="round"/>
<path d="M26 25.2432C30.3884 25.2432 33.946 21.6857 33.946 17.2973C33.946 12.9088 30.3884 9.35132 26 9.35132C21.6116 9.35132 18.0541 12.9088 18.0541 17.2973C18.0541 21.6857 21.6116 25.2432 26 25.2432Z" stroke="#3975E9" stroke-width="2" stroke-linecap="round" stroke-linejoin="round"/>
</svg>
